<?xml version="1.0" encoding="utf-8"?>
<!-- Generator: Adobe Illustrator 22.0.1, SVG Export Plug-In . SVG Version: 6.00 Build 0)  -->
<svg version="1.1" id="Layer_1" xmlns="http://www.w3.org/2000/svg" xmlns:xlink="http://www.w3.org/1999/xlink" x="0px" y="0px"
	 viewBox="0 0 450 200" style="enable-background:new 0 0 450 200;" xml:space="preserve">
<style type="text/css">
	.st0{fill:#4D8AF0;}
	.st1{fill:#EEEEEE;}
	.st2{fill:#E0E0E0;}
	.st3{opacity:0.5;}
	.st4{fill:url(#SVGID_1_);}
	.st5{fill:#FDA57D;}
	.st6{opacity:0.1;enable-background:new    ;}
	.st7{fill:#FFFFFF;}
	.st8{fill:#333333;}
	.st9{fill:#F55F44;}
	.st10{fill:url(#SVGID_2_);}
	.st11{fill:#6C63FF;}
	.st12{opacity:0.2;enable-background:new    ;}
	.st13{fill:url(#SVGID_3_);}
	.st14{fill:url(#SVGID_4_);}
	.st15{fill:url(#SVGID_5_);}
	.st16{fill:url(#SVGID_6_);}
	.st17{opacity:0.2;}
	.st18{fill:url(#SVGID_7_);}
	.st19{opacity:0.3;}
	.st20{fill:url(#SVGID_8_);}
	.st21{fill:url(#SVGID_9_);}
	.st22{fill:url(#SVGID_10_);}
	.st23{fill:url(#SVGID_11_);}
	.st24{fill:url(#SVGID_12_);}
	.st25{fill:url(#SVGID_13_);}
	.st26{fill:url(#SVGID_14_);}
	.st27{fill:url(#SVGID_15_);}
	.st28{fill:url(#SVGID_16_);}
	.st29{fill:url(#SVGID_17_);}
	.st30{fill:url(#SVGID_18_);}
	.st31{fill:url(#SVGID_19_);}
	.st32{fill:url(#SVGID_20_);}
	.st33{fill:url(#SVGID_21_);}
	.st34{enable-background:new    ;}
</style>
<rect x="17.5" y="107.4" class="st0" width="36.6" height="5.2"/>
<path class="st1" d="M17.5,112.5l-4.1,82.9c0,0.3,0.6,0.6,1.3,0.6l0,0c0.7,0,1.3-0.2,1.3-0.5l5.7-82.9L17.5,112.5z"/>
<path class="st1" d="M54.1,112.5l4.1,82.9c0,0.3-0.6,0.6-1.3,0.6l0,0c-0.7,0-1.3-0.2-1.3-0.5l-5.7-82.9L54.1,112.5z"/>
<path class="st2" d="M25.3,112.6l-4.4,82.9c0,0.3,0.6,0.6,1.3,0.6h0.5c0.7,0,1.3-0.3,1.3-0.5l4.1-82.9L25.3,112.6z"/>
<path class="st2" d="M47.1,112.6l4.4,82.9c0,0.3-0.6,0.6-1.3,0.6h-0.5c-0.7,0-1.3-0.3-1.3-0.5l-4.1-82.9L47.1,112.6z"/>
<rect x="25.6" y="164.5" class="st2" width="23.7" height="2.3"/>
<rect x="26.1" y="148.4" class="st2" width="20.2" height="2.7"/>
<rect x="26.1" y="133.4" class="st2" width="20.2" height="2.9"/>
<rect x="27.1" y="118.6" class="st2" width="18.4" height="2.9"/>
<rect x="9" y="97.4" class="st0" width="53.8" height="10.7"/>
<g class="st3">
	
		<linearGradient id="SVGID_1_" gradientUnits="userSpaceOnUse" x1="189.9939" y1="694.2923" x2="189.9939" y2="617.3181" gradientTransform="matrix(1 0 0 1 -149.07 -595)">
		<stop  offset="0" style="stop-color:#808080;stop-opacity:0.25"/>
		<stop  offset="0.54" style="stop-color:#808080;stop-opacity:0.12"/>
		<stop  offset="1" style="stop-color:#808080;stop-opacity:0.1"/>
	</linearGradient>
	<path class="st4" d="M59.9,22.3L41.2,33.8C41.1,33,40.6,32.4,40,32c0.2-0.5,0.2-1.1,0.1-1.7c0-0.2-0.1-0.3-0.2-0.5
		c-0.2-0.2-0.5-0.2-0.7-0.2l-3,0.2c-0.3,0-0.7,0.1-1,0.3c-0.4,0.3-0.5,1-1,1.3c-0.3,0.2-0.6,0.2-1,0.3c-0.7,0.4-0.8,1.4-0.9,2.2
		c0,1.1,0,2.5,0.7,3.2c0.6,0.5,1.4,0.5,2.1,0.4l0.7,0c0.2,0.1,0.4,0.2,0.6,0.3v1h-0.1c0,0-8.4-2.3-17.6,21.5h-0.1
		c0,0-1.4,4.3,0.8,3.6c1.9-0.7,1.9-2.9,1.9-3.4h0.1c0,0,3.8-10.4,9.8-11.7c0,0,4.3,5.1-2.7,15.3h5.5c0,1.1,0.2,2.3,0.7,3.3
		c1.7,3.1-3.3,32.1-3.3,32.1h4.1l2-9.6l0.2,9.6h3l3-18.5l-0.4-22.3v-5.8l0.5,0.7v-8.9H52l1.4-9.9h-0.1c0-0.7,0-1.4-0.1-2.1l10.1-2
		C64.8,24.1,59.9,22.3,59.9,22.3z M51.1,34.7l-2.4,5.7c0,0-6.5-2.8-8.9-1.8h-0.1v-1.2c1-0.5,1.7-1.5,1.7-2.6l9.8-1.9
		C51,33.4,51,34.1,51.1,34.7L51.1,34.7z"/>
</g>
<path class="st5" d="M52.6,36.2c0,0,0.3-4.2-1.1-3.3c-1.4,0.9-0.8,3.6-0.8,3.6L52.6,36.2z"/>
<path class="st5" d="M19.7,60.2c0,0-1.3,4.1,0.8,3.4c2.1-0.7,1.8-3.4,1.8-3.4S19.7,60.2,19.7,60.2z"/>
<rect x="36.8" y="38.1" class="st5" width="2.9" height="2.4"/>
<rect x="34.5" y="51.4" class="st0" width="2.3" height="10.9"/>
<rect x="34.5" y="51.4" class="st6" width="2.3" height="10.9"/>
<path class="st7" d="M37.9,39.7h2.7c1.6,0,2.8,1.2,2.8,2.6v16.3l0,0h-8.3l0,0V42.3C35.1,40.9,36.4,39.7,37.9,39.7z"/>
<ellipse class="st5" cx="38" cy="35.8" rx="3.4" ry="3.1"/>
<path class="st0" d="M36.7,39.7c0,0-8-2.2-16.8,20.6h2.6c0,0,3.6-9.9,9.3-11.2c0,0,4.1,4.8-2.6,14.6h5.4v-3.2
	c0-4.9,0.6-9.8,1.9-14.6C37.2,43.8,37.2,41.7,36.7,39.7z"/>
<path class="st0" d="M39.8,39.7v0.7c0,0,1.8,7.5,3.4,12.4l0.8,1v-8.6h7.5l1.3-9.4h-2.1l-2.4,5.6C48.3,41.4,42.1,38.7,39.8,39.7z"/>
<path class="st8" d="M35.1,58.6c0,0-1.6,5.3,0,8.2c1.6,2.9-3.1,30.6-3.1,30.6h3.9l5.5-26.1l0.9-12.8L35.1,58.6z"/>
<polygon class="st8" points="43.4,58.6 43.8,79.8 41,97.4 38.1,97.4 37.1,58.6 "/>
<path class="st8" d="M37.4,34.6c0-0.1,0.1-0.2,0.2-0.3c0.1,0,0.2-0.1,0.3-0.1c0.7,0,1.5,0,1.9-0.7c0.3-0.5,0.4-1.2,0.2-1.8
	c0-0.2-0.1-0.3-0.2-0.5c-0.2-0.2-0.4-0.2-0.7-0.2l-2.8,0.2c-0.3,0-0.6,0.1-0.9,0.3c-0.4,0.3-0.5,1-0.9,1.2c-0.3,0.2-0.6,0.2-0.9,0.3
	c-0.6,0.3-0.8,1.3-0.8,2.1c0,1.1,0,2.4,0.7,3c0.5,0.5,1.3,0.5,2,0.4l1.3-0.1c0.1,0,0.2,0,0.4-0.1c0.1-0.2,0.2-0.5,0.2-0.7
	c0-0.6-0.1-1.3-0.5-1.7c-0.1-0.1-0.2-0.1-0.3-0.2C36.1,35,37.2,34.9,37.4,34.6z"/>
<path class="st9" d="M59.1,24.1c0,0,4.7,1.7,3.1,7.7L41.2,36v-1L59.1,24.1z"/>
<rect x="17.6" y="108" class="st6" width="36.5" height="1"/>
<rect x="23.6" y="176.4" class="st6" width="2.9" height="0.5"/>
<rect x="45.9" y="176.4" class="st6" width="2.9" height="0.5"/>
<rect x="17.5" y="172.4" class="st1" width="36.5" height="4.1"/>
<linearGradient id="SVGID_2_" gradientUnits="userSpaceOnUse" x1="261.4476" y1="1039.2954" x2="261.4476" y2="1032.3977" gradientTransform="matrix(0.9979 -6.540313e-02 6.540313e-02 0.9979 -250.789 -992.3788)">
	<stop  offset="0" style="stop-color:#808080;stop-opacity:0.25"/>
	<stop  offset="0.54" style="stop-color:#808080;stop-opacity:0.12"/>
	<stop  offset="1" style="stop-color:#808080;stop-opacity:0.1"/>
</linearGradient>
<polygon class="st10" points="82.4,22.5 82.8,22.3 82.7,22.3 82.7,22.3 82.7,22.3 72.6,21.1 72.9,24.2 73.2,27 73.8,26.6 74.4,27.9 
	"/>
<polygon class="st11" points="73.2,24.1 73.5,26.6 82.4,22.4 74.7,22.5 "/>
<polygon class="st12" points="73.2,24.1 73.5,26.6 82.4,22.4 74.7,22.5 "/>
<polygon class="st11" points="73,21.3 82.4,22.4 73.2,24.1 "/>
<polygon class="st11" points="74.6,27.5 82.4,22.4 73.3,24.9 "/>
<linearGradient id="SVGID_3_" gradientUnits="userSpaceOnUse" x1="310.8022" y1="1029.4752" x2="310.8022" y2="1022.5775" gradientTransform="matrix(0.9979 -6.540313e-02 6.540313e-02 0.9979 -250.789 -992.3788)">
	<stop  offset="0" style="stop-color:#808080;stop-opacity:0.25"/>
	<stop  offset="0.54" style="stop-color:#808080;stop-opacity:0.12"/>
	<stop  offset="1" style="stop-color:#808080;stop-opacity:0.1"/>
</linearGradient>
<polygon class="st13" points="131,9.5 131.4,9.3 131.3,9.3 131.3,9.2 131.2,9.3 121.2,8.1 121.4,11.2 121.8,13.9 122.4,13.6 
	122.9,14.8 "/>
<polygon class="st11" points="121.8,11.1 122.1,13.6 131,9.4 123.3,9.5 "/>
<polygon class="st12" points="121.8,11.1 122.1,13.6 131,9.4 123.3,9.5 "/>
<polygon class="st11" points="121.6,8.2 131,9.4 121.8,11.1 "/>
<polygon class="st11" points="123.2,14.5 131,9.3 122,11.9 "/>
<linearGradient id="SVGID_4_" gradientUnits="userSpaceOnUse" x1="258.2092" y1="1191.1611" x2="258.2092" y2="1180.5699" gradientTransform="matrix(0.9725 -0.2331 0.2331 0.9725 -317.8206 -1084.0872)">
	<stop  offset="0" style="stop-color:#808080;stop-opacity:0.25"/>
	<stop  offset="0.54" style="stop-color:#808080;stop-opacity:0.12"/>
	<stop  offset="1" style="stop-color:#808080;stop-opacity:0.1"/>
</linearGradient>
<polygon class="st14" points="216.1,5.4 216.7,5 216.5,5 216.6,5 216.5,5 201,5.6 202.2,10.3 203.5,14.3 204.3,13.8 205.5,15.4 "/>
<polygon class="st11" points="202.7,10.1 203.8,13.8 216.2,5.2 204.5,7.4 "/>
<polygon class="st12" points="202.7,10.1 203.8,13.8 216.2,5.2 204.5,7.4 "/>
<polygon class="st11" points="201.7,5.9 216.2,5.2 202.7,10.1 "/>
<polygon class="st11" points="205.7,14.8 216.1,5.2 203.2,11.2 "/>
<linearGradient id="SVGID_5_" gradientUnits="userSpaceOnUse" x1="491.5578" y1="786.1457" x2="491.5578" y2="779.2557" gradientTransform="matrix(0.9842 0.1771 -0.1771 0.9842 -174.831 -825.0671)">
	<stop  offset="0" style="stop-color:#808080;stop-opacity:0.25"/>
	<stop  offset="0.54" style="stop-color:#808080;stop-opacity:0.12"/>
	<stop  offset="1" style="stop-color:#808080;stop-opacity:0.1"/>
</linearGradient>
<polygon class="st15" points="175.2,31.6 175.6,31.5 175.5,31.5 175.5,31.5 175.5,31.5 166.1,28.1 165.5,31.1 165,33.8 165.7,33.7 
	166,35 "/>
<polygon class="st11" points="165.8,31.1 165.4,33.7 175.2,31.5 167.6,29.9 "/>
<polygon class="st12" points="165.8,31.1 165.4,33.7 175.2,31.5 167.6,29.9 "/>
<polygon class="st11" points="166.3,28.3 175.2,31.5 165.8,31.1 "/>
<polygon class="st11" points="166.3,34.7 175.2,31.5 165.8,31.9 "/>
<g class="st3">
	
		<linearGradient id="SVGID_6_" gradientUnits="userSpaceOnUse" x1="296.0363" y1="1083.2482" x2="296.0363" y2="1076.3508" gradientTransform="matrix(0.9979 -6.540313e-02 6.540313e-02 0.9979 -250.789 -992.3788)">
		<stop  offset="0" style="stop-color:#808080;stop-opacity:0.25"/>
		<stop  offset="0.54" style="stop-color:#808080;stop-opacity:0.12"/>
		<stop  offset="1" style="stop-color:#808080;stop-opacity:0.1"/>
	</linearGradient>
	<polygon class="st16" points="119.8,64.1 120.2,63.9 120.1,63.9 120.1,63.9 120,63.9 110,62.7 110.2,65.8 110.5,68.5 111.2,68.3 
		111.7,69.5 	"/>
	<polygon class="st11" points="110.5,65.7 110.8,68.3 119.8,64 112.1,64.2 	"/>
	<polygon class="st12" points="110.5,65.7 110.8,68.3 119.8,64 112.1,64.2 	"/>
	<polygon class="st11" points="110.4,62.9 119.8,64 110.5,65.7 	"/>
	<polygon class="st11" points="112,69.1 119.8,64 110.7,66.5 	"/>
</g>
<g class="st17">
	
		<linearGradient id="SVGID_7_" gradientUnits="userSpaceOnUse" x1="266.1842" y1="1210.5992" x2="266.1842" y2="1200.0037" gradientTransform="matrix(0.9725 -0.2331 0.2331 0.9725 -317.8206 -1084.0872)">
		<stop  offset="0" style="stop-color:#808080;stop-opacity:0.25"/>
		<stop  offset="0.54" style="stop-color:#808080;stop-opacity:0.12"/>
		<stop  offset="1" style="stop-color:#808080;stop-opacity:0.1"/>
	</linearGradient>
	<polygon class="st18" points="228.4,22.4 228.9,22.1 228.8,22.1 228.8,22 228.8,22.1 213.3,22.7 214.5,27.3 215.7,31.4 216.6,30.8 
		217.8,32.5 	"/>
	<polygon class="st11" points="215,27.1 216.1,30.9 228.5,22.3 216.8,24.4 	"/>
	<polygon class="st12" points="215,27.1 216.1,30.9 228.5,22.3 216.8,24.4 	"/>
	<polygon class="st11" points="213.9,22.9 228.5,22.3 215,27.1 	"/>
	<polygon class="st11" points="218,31.9 228.4,22.3 215.4,28.2 	"/>
</g>
<g class="st19">
	
		<linearGradient id="SVGID_8_" gradientUnits="userSpaceOnUse" x1="294.3688" y1="1269.4021" x2="294.3688" y2="1258.8068" gradientTransform="matrix(0.9725 -0.2331 0.2331 0.9725 -317.8206 -1084.0872)">
		<stop  offset="0" style="stop-color:#808080;stop-opacity:0.25"/>
		<stop  offset="0.54" style="stop-color:#808080;stop-opacity:0.12"/>
		<stop  offset="1" style="stop-color:#808080;stop-opacity:0.1"/>
	</linearGradient>
	<polygon class="st20" points="269.5,73 270,72.7 269.9,72.7 269.9,72.6 269.9,72.7 254.4,73.3 255.7,77.9 256.9,82 257.7,81.4 
		258.9,83.1 	"/>
	<polygon class="st11" points="256.1,77.7 257.3,81.5 269.6,72.9 257.9,75 	"/>
	<polygon class="st12" points="256.1,77.7 257.3,81.5 269.6,72.9 257.9,75 	"/>
	<polygon class="st11" points="255,73.5 269.6,72.9 256.1,77.7 	"/>
	<polygon class="st11" points="259.2,82.5 269.5,72.9 256.6,78.9 	"/>
</g>
<g class="st19">
	
		<linearGradient id="SVGID_9_" gradientUnits="userSpaceOnUse" x1="412.1361" y1="1323.3899" x2="412.1361" y2="1312.7957" gradientTransform="matrix(0.9725 -0.2331 0.2331 0.9725 -317.8206 -1084.0872)">
		<stop  offset="0" style="stop-color:#808080;stop-opacity:0.25"/>
		<stop  offset="0.54" style="stop-color:#808080;stop-opacity:0.12"/>
		<stop  offset="1" style="stop-color:#808080;stop-opacity:0.1"/>
	</linearGradient>
	<polygon class="st21" points="396.6,98.1 397.2,97.7 397,97.7 397.1,97.7 397,97.7 381.5,98.3 382.7,103 384,107.1 384.8,106.4 
		386,108.2 	"/>
	<polygon class="st11" points="383.2,102.8 384.4,106.5 396.7,98 385,100.1 	"/>
	<polygon class="st12" points="383.2,102.8 384.4,106.5 396.7,98 385,100.1 	"/>
	<polygon class="st11" points="382.1,98.6 396.7,98 383.2,102.8 	"/>
	<polygon class="st11" points="386.2,107.5 396.6,97.9 383.7,103.9 	"/>
</g>
<g class="st3">
	
		<linearGradient id="SVGID_10_" gradientUnits="userSpaceOnUse" x1="500.3263" y1="825.8154" x2="500.3263" y2="818.9254" gradientTransform="matrix(0.9842 0.1771 -0.1771 0.9842 -174.831 -825.0671)">
		<stop  offset="0" style="stop-color:#808080;stop-opacity:0.25"/>
		<stop  offset="0.54" style="stop-color:#808080;stop-opacity:0.12"/>
		<stop  offset="1" style="stop-color:#808080;stop-opacity:0.1"/>
	</linearGradient>
	<polygon class="st22" points="176.8,72.2 177.2,72.1 177.1,72.1 177.1,72.1 177.1,72.1 167.7,68.6 167.1,71.7 166.6,74.5 
		167.3,74.3 167.6,75.6 	"/>
	<polygon class="st11" points="167.4,71.7 167,74.2 176.8,72.1 169.2,70.5 	"/>
	<polygon class="st12" points="167.4,71.7 167,74.2 176.8,72.1 169.2,70.5 	"/>
	<polygon class="st11" points="168,68.9 176.8,72.1 167.4,71.7 	"/>
	<polygon class="st11" points="167.9,75.3 176.8,72.1 167.4,72.5 	"/>
</g>
<g class="st3">
	
		<linearGradient id="SVGID_11_" gradientUnits="userSpaceOnUse" x1="682.7343" y1="853.5861" x2="682.7343" y2="846.696" gradientTransform="matrix(0.9842 0.1771 -0.1771 0.9842 -174.831 -825.0671)">
		<stop  offset="0" style="stop-color:#808080;stop-opacity:0.25"/>
		<stop  offset="0.54" style="stop-color:#808080;stop-opacity:0.12"/>
		<stop  offset="1" style="stop-color:#808080;stop-opacity:0.1"/>
	</linearGradient>
	<polygon class="st23" points="351.4,131.8 351.8,131.7 351.7,131.7 351.8,131.7 351.7,131.7 342.3,128.3 341.7,131.3 341.3,134.1 
		342,133.9 342.2,135.3 	"/>
	<polygon class="st11" points="342,131.4 341.7,133.9 351.5,131.8 343.8,130.2 	"/>
	<polygon class="st12" points="342,131.4 341.7,133.9 351.5,131.8 343.8,130.2 	"/>
	<polygon class="st11" points="342.5,128.6 351.5,131.8 342,131.4 	"/>
	<polygon class="st11" points="342.5,134.9 351.4,131.7 342,132.2 	"/>
</g>
<g class="st3">
	
		<linearGradient id="SVGID_12_" gradientUnits="userSpaceOnUse" x1="661.0408" y1="793.3281" x2="661.0408" y2="786.4388" gradientTransform="matrix(0.9842 0.1771 -0.1771 0.9842 -174.831 -825.0671)">
		<stop  offset="0" style="stop-color:#808080;stop-opacity:0.25"/>
		<stop  offset="0.54" style="stop-color:#808080;stop-opacity:0.12"/>
		<stop  offset="1" style="stop-color:#808080;stop-opacity:0.1"/>
	</linearGradient>
	<polygon class="st24" points="340.7,68.7 341.1,68.6 341,68.6 341.1,68.6 341,68.6 331.6,65.1 331,68.2 330.6,70.9 331.3,70.8 
		331.5,72.1 	"/>
	<polygon class="st11" points="331.4,68.2 331,70.7 340.8,68.6 333.2,67 	"/>
	<polygon class="st12" points="331.4,68.2 331,70.7 340.8,68.6 333.2,67 	"/>
	<polygon class="st11" points="331.9,65.4 340.8,68.6 331.4,68.2 	"/>
	<polygon class="st11" points="331.9,71.8 340.7,68.6 331.3,69 	"/>
</g>
<g class="st17">
	
		<linearGradient id="SVGID_13_" gradientUnits="userSpaceOnUse" x1="738.9706" y1="725.8414" x2="738.9706" y2="718.9527" gradientTransform="matrix(0.9842 0.1771 -0.1771 0.9842 -174.831 -825.0671)">
		<stop  offset="0" style="stop-color:#808080;stop-opacity:0.25"/>
		<stop  offset="0.54" style="stop-color:#808080;stop-opacity:0.12"/>
		<stop  offset="1" style="stop-color:#808080;stop-opacity:0.1"/>
	</linearGradient>
	<polygon class="st25" points="429.4,16.1 429.8,16 429.7,16 429.7,15.9 429.7,15.9 420.2,12.5 419.7,15.6 419.3,18.4 419.9,18.2 
		420.2,19.5 	"/>
	<polygon class="st11" points="420,15.6 419.6,18.1 429.4,16 421.8,14.4 	"/>
	<polygon class="st12" points="420,15.6 419.6,18.1 429.4,16 421.8,14.4 	"/>
	<polygon class="st11" points="420.5,12.8 429.4,16 420,15.6 	"/>
	<polygon class="st11" points="420.5,19.2 429.4,16 419.9,16.4 	"/>
</g>
<g class="st17">
	
		<linearGradient id="SVGID_14_" gradientUnits="userSpaceOnUse" x1="419.2696" y1="800.6729" x2="419.2696" y2="793.7834" gradientTransform="matrix(0.9842 0.1771 -0.1771 0.9842 -174.831 -825.0671)">
		<stop  offset="0" style="stop-color:#808080;stop-opacity:0.25"/>
		<stop  offset="0.54" style="stop-color:#808080;stop-opacity:0.12"/>
		<stop  offset="1" style="stop-color:#808080;stop-opacity:0.1"/>
	</linearGradient>
	<polygon class="st26" points="101.5,33.1 101.9,33 101.8,33 101.8,33 101.8,33 92.3,29.6 91.8,32.6 91.4,35.4 92,35.2 92.3,36.5 	
		"/>
	<polygon class="st11" points="92.1,32.7 91.8,35.2 101.5,33 93.9,31.4 	"/>
	<polygon class="st12" points="92.1,32.7 91.8,35.2 101.5,33 93.9,31.4 	"/>
	<polygon class="st11" points="92.6,29.8 101.5,33 92.1,32.7 	"/>
	<polygon class="st11" points="92.6,36.2 101.5,33 92,33.4 	"/>
</g>
<linearGradient id="SVGID_15_" gradientUnits="userSpaceOnUse" x1="467.7482" y1="1055.014" x2="467.7482" y2="1044.4744" gradientTransform="matrix(0.9979 -6.540313e-02 6.540313e-02 0.9979 -250.789 -992.3788)">
	<stop  offset="0" style="stop-color:#808080;stop-opacity:0.25"/>
	<stop  offset="0.54" style="stop-color:#808080;stop-opacity:0.12"/>
	<stop  offset="1" style="stop-color:#808080;stop-opacity:0.1"/>
</linearGradient>
<polygon class="st27" points="291.5,22 292.1,21.7 292,21.7 292,21.6 291.9,21.6 276.6,19.8 277,24.6 277.4,28.8 278.4,28.3 
	279.3,30.2 "/>
<polygon class="st11" points="277.5,24.5 277.9,28.3 291.6,21.8 279.7,22 "/>
<polygon class="st12" points="277.5,24.5 277.9,28.3 291.6,21.8 279.7,22 "/>
<polygon class="st11" points="277.2,20.1 291.6,21.8 277.5,24.5 "/>
<polygon class="st11" points="279.6,29.6 291.5,21.8 277.7,25.6 "/>
<linearGradient id="SVGID_16_" gradientUnits="userSpaceOnUse" x1="664.7183" y1="600.5908" x2="664.7183" y2="576.2969" gradientTransform="matrix(0.8905 0.4551 -0.4551 0.8905 -13.8818 -732.9827)">
	<stop  offset="0" style="stop-color:#808080;stop-opacity:0.25"/>
	<stop  offset="0.54" style="stop-color:#808080;stop-opacity:0.12"/>
	<stop  offset="1" style="stop-color:#808080;stop-opacity:0.1"/>
</linearGradient>
<polygon class="st28" points="327.2,95.6 328.6,95.7 328.4,95.5 328.6,95.5 328.4,95.5 300.6,75 295.3,84.7 291,93.5 293.3,93.6 
	292.8,98.2 "/>
<polygon class="st11" points="296.4,85 292.4,93.1 327.5,95.4 303.8,82.8 "/>
<polygon class="st12" points="296.4,85 292.4,93.1 327.5,95.4 303.8,82.8 "/>
<polygon class="st11" points="301.2,76.1 327.5,95.4 296.4,85 "/>
<polygon class="st11" points="294.2,97.5 327.4,95.2 295.4,87.6 "/>
<linearGradient id="SVGID_17_" gradientUnits="userSpaceOnUse" x1="728.1176" y1="773.5831" x2="728.1176" y2="722.8865" gradientTransform="matrix(0.9 0.43 -0.43 0.9 74.57 -816.05)">
	<stop  offset="0" style="stop-color:#808080;stop-opacity:0.25"/>
	<stop  offset="0.54" style="stop-color:#808080;stop-opacity:0.12"/>
	<stop  offset="1" style="stop-color:#808080;stop-opacity:0.1"/>
</linearGradient>
<polygon class="st29" points="444,173.2 447,173.3 446.5,172.9 446.7,172.9 446.3,172.8 387,131.7 376.6,152.3 368.1,170.9 
	373.2,171.1 372.2,180.8 "/>
<polygon class="st11" points="378.9,153 371.2,170.1 444.5,172.8 394.3,147.9 "/>
<polygon class="st12" points="378.9,153 371.2,170.1 444.5,172.8 394.3,147.9 "/>
<polygon class="st11" points="388.4,134.2 444.5,172.8 378.9,153 "/>
<polygon class="st11" points="375.1,179.2 444.3,172.4 377,158.4 "/>
<linearGradient id="SVGID_18_" gradientUnits="userSpaceOnUse" x1="598.8019" y1="1011.3472" x2="598.8019" y2="987.2714" gradientTransform="matrix(1 -1.000000e-02 1.000000e-02 1 -231.79 -969.66)">
	<stop  offset="0" style="stop-color:#808080;stop-opacity:0.25"/>
	<stop  offset="0.54" style="stop-color:#808080;stop-opacity:0.12"/>
	<stop  offset="1" style="stop-color:#808080;stop-opacity:0.1"/>
</linearGradient>
<polygon class="st30" points="393.2,16.5 394.5,15.9 394.2,15.9 394.3,15.8 394.1,15.9 359.3,9.9 359.5,20.9 360.1,30.6 362.3,29.6 
	364,34 "/>
<polygon class="st11" points="360.7,20.7 361.2,29.6 393.3,16.2 366.1,15.4 "/>
<polygon class="st12" points="360.7,20.7 361.2,29.6 393.3,16.2 366.1,15.4 "/>
<polygon class="st11" points="360.5,10.7 393.3,16.2 360.7,20.7 "/>
<polygon class="st11" points="364.9,32.7 393.1,16.1 361,23.4 "/>
<linearGradient id="SVGID_19_" gradientUnits="userSpaceOnUse" x1="635.2682" y1="1048.4442" x2="635.2682" y2="1024.3821" gradientTransform="matrix(1 -1.000000e-02 1.000000e-02 1 -231.79 -969.66)">
	<stop  offset="0" style="stop-color:#808080;stop-opacity:0.25"/>
	<stop  offset="0.54" style="stop-color:#808080;stop-opacity:0.12"/>
	<stop  offset="1" style="stop-color:#808080;stop-opacity:0.1"/>
</linearGradient>
<polygon class="st31" points="430,53.1 431.3,52.5 431,52.5 431.1,52.4 430.9,52.4 396.2,46.5 396.3,57.5 396.9,67.1 399.1,66.2 
	400.9,70.5 "/>
<polygon class="st11" points="397.5,57.3 398,66.2 430.1,52.8 403,52 "/>
<polygon class="st12" points="397.5,57.3 398,66.2 430.1,52.8 403,52 "/>
<polygon class="st11" points="397.4,47.3 430.1,52.8 397.5,57.3 "/>
<polygon class="st11" points="401.7,69.3 430,52.7 397.9,60 "/>
<linearGradient id="SVGID_20_" gradientUnits="userSpaceOnUse" x1="417.7367" y1="1080.7618" x2="417.7367" y2="1070.2222" gradientTransform="matrix(0.9979 -6.540313e-02 6.540313e-02 0.9979 -250.789 -992.3788)">
	<stop  offset="0" style="stop-color:#808080;stop-opacity:0.25"/>
	<stop  offset="0.54" style="stop-color:#808080;stop-opacity:0.12"/>
	<stop  offset="1" style="stop-color:#808080;stop-opacity:0.1"/>
</linearGradient>
<polygon class="st32" points="243.3,50.9 243.9,50.6 243.8,50.6 243.8,50.6 243.7,50.6 228.4,48.8 228.8,53.5 229.2,57.7 
	230.2,57.3 231,59.1 "/>
<polygon class="st11" points="229.2,53.4 229.7,57.3 243.4,50.8 231.5,51 "/>
<polygon class="st12" points="229.2,53.4 229.7,57.3 243.4,50.8 231.5,51 "/>
<polygon class="st11" points="228.9,49.1 243.4,50.8 229.2,53.4 "/>
<polygon class="st11" points="231.4,58.6 243.3,50.8 229.5,54.6 "/>
<linearGradient id="SVGID_21_" gradientUnits="userSpaceOnUse" x1="510.3304" y1="1080.3046" x2="510.3304" y2="1069.7617" gradientTransform="matrix(0.9979 -6.540313e-02 6.540313e-02 0.9979 -250.789 -992.3788)">
	<stop  offset="0" style="stop-color:#808080;stop-opacity:0.25"/>
	<stop  offset="0.54" style="stop-color:#808080;stop-opacity:0.12"/>
	<stop  offset="1" style="stop-color:#808080;stop-opacity:0.1"/>
</linearGradient>
<polygon class="st33" points="335.7,44.4 336.3,44.1 336.2,44.1 336.2,44.1 336.1,44.1 320.8,42.2 321.1,47 321.6,51.2 322.6,50.8 
	323.5,52.6 "/>
<polygon class="st11" points="321.7,46.9 322.1,50.8 335.8,44.3 323.9,44.5 "/>
<polygon class="st12" points="321.7,46.9 322.1,50.8 335.8,44.3 323.9,44.5 "/>
<polygon class="st11" points="321.4,42.6 335.8,44.3 321.7,46.9 "/>
<polygon class="st11" points="323.8,52.1 335.7,44.2 321.9,48.1 "/>
<g class="st34">
	<path class="st0" d="M98.4,115v5h-1.7v-11.7h3.7c1.2,0,2.1,0.3,2.8,0.9s1,1.4,1,2.5c0,0.6-0.2,1.1-0.5,1.6
		c-0.3,0.5-0.7,0.8-1.3,1.1c0.6,0.2,1.1,0.5,1.4,1c0.3,0.5,0.4,1.1,0.4,1.7v1c0,0.4,0,0.7,0.1,1c0.1,0.3,0.2,0.5,0.4,0.7v0.2h-1.8
		c-0.2-0.2-0.3-0.4-0.4-0.8c-0.1-0.4-0.1-0.7-0.1-1.1v-1c0-0.7-0.2-1.2-0.5-1.5c-0.3-0.4-0.8-0.6-1.3-0.6H98.4z M98.4,113.7h1.8
		c0.7,0,1.2-0.2,1.6-0.5c0.3-0.4,0.5-0.9,0.5-1.5c0-0.7-0.2-1.2-0.5-1.6c-0.3-0.4-0.8-0.6-1.5-0.6h-1.9V113.7z"/>
	<path class="st0" d="M109.5,120.2c-1.1,0-2.1-0.4-2.7-1.2c-0.7-0.8-1-1.8-1-3.1v-0.4c0-1.3,0.3-2.3,1-3.1c0.6-0.8,1.5-1.2,2.5-1.2
		c1.1,0,1.9,0.3,2.4,1c0.5,0.7,0.8,1.6,0.8,2.8v0.9h-5c0,0.9,0.2,1.6,0.5,2.2c0.3,0.5,0.9,0.8,1.6,0.8c0.5,0,0.9-0.1,1.3-0.2
		c0.4-0.1,0.7-0.3,1-0.6l0.6,1c-0.3,0.3-0.7,0.6-1.2,0.8C110.7,120.1,110.1,120.2,109.5,120.2z M109.3,112.4c-0.5,0-0.9,0.2-1.2,0.7
		c-0.3,0.4-0.5,1-0.6,1.7h3.3v-0.2c0-0.7-0.1-1.2-0.4-1.6C110.2,112.6,109.9,112.4,109.3,112.4z"/>
	<path class="st0" d="M116.7,117.4l0.1,0.7h0.1l0.2-0.7l1.6-6.1h1.8l-2.8,8.7h-1.5l-2.8-8.7h1.8L116.7,117.4z"/>
	<path class="st0" d="M121.2,115.6c0-1.3,0.3-2.3,1-3.2c0.6-0.8,1.5-1.2,2.7-1.2c1.1,0,2,0.4,2.7,1.2c0.7,0.8,1,1.9,1,3.2v0.2
		c0,1.3-0.3,2.3-1,3.2c-0.6,0.8-1.5,1.2-2.7,1.2c-1.1,0-2-0.4-2.7-1.2s-1-1.9-1-3.2V115.6z M123,115.8c0,0.9,0.2,1.7,0.5,2.3
		c0.3,0.6,0.8,0.9,1.4,0.9c0.6,0,1.1-0.3,1.4-0.9c0.3-0.6,0.5-1.3,0.5-2.3v-0.2c0-0.9-0.2-1.7-0.5-2.3c-0.3-0.6-0.8-0.9-1.4-0.9
		c-0.6,0-1.1,0.3-1.4,0.9c-0.3,0.6-0.5,1.3-0.5,2.3V115.8z"/>
	<path class="st0" d="M132,120h-1.7v-12.5h1.7V120z"/>
	<path class="st0" d="M139.1,118.7c-0.3,0.5-0.6,0.8-1,1.1c-0.4,0.2-0.8,0.4-1.3,0.4c-0.8,0-1.5-0.3-2-0.9s-0.7-1.6-0.7-2.9v-5.1
		h1.7v5.1c0,0.9,0.1,1.6,0.3,2s0.6,0.6,1,0.6c0.4,0,0.8-0.1,1.1-0.3c0.3-0.2,0.5-0.5,0.7-0.8v-6.5h1.7v8.7h-1.5L139.1,118.7z"/>
	<path class="st0" d="M145,109.2v2.2h1.4v1.2H145v5.2c0,0.4,0.1,0.8,0.2,1c0.1,0.2,0.3,0.3,0.6,0.3c0.1,0,0.2,0,0.3,0
		c0.1,0,0.2,0,0.3-0.1l0.2,1.1c-0.2,0.1-0.3,0.1-0.6,0.2c-0.2,0-0.4,0.1-0.6,0.1c-0.7,0-1.2-0.2-1.6-0.6c-0.4-0.4-0.6-1-0.6-1.9
		v-5.2H142v-1.2h1.2v-2.2H145z"/>
	<path class="st0" d="M149.9,109.1h-1.7v-1.6h1.7V109.1z M149.9,120h-1.7v-8.7h1.7V120z"/>
	<path class="st0" d="M151.6,115.6c0-1.3,0.3-2.3,1-3.2c0.6-0.8,1.5-1.2,2.7-1.2c1.1,0,2,0.4,2.7,1.2c0.7,0.8,1,1.9,1,3.2v0.2
		c0,1.3-0.3,2.3-1,3.2c-0.6,0.8-1.5,1.2-2.7,1.2c-1.1,0-2-0.4-2.7-1.2s-1-1.9-1-3.2V115.6z M153.4,115.8c0,0.9,0.2,1.7,0.5,2.3
		c0.3,0.6,0.8,0.9,1.4,0.9c0.6,0,1.1-0.3,1.4-0.9c0.3-0.6,0.5-1.3,0.5-2.3v-0.2c0-0.9-0.2-1.7-0.5-2.3c-0.3-0.6-0.8-0.9-1.4-0.9
		c-0.6,0-1.1,0.3-1.4,0.9c-0.3,0.6-0.5,1.3-0.5,2.3V115.8z"/>
	<path class="st0" d="M162.2,111.3l0.1,1.3c0.3-0.5,0.6-0.8,1-1.1c0.4-0.3,0.9-0.4,1.4-0.4c0.8,0,1.5,0.3,1.9,0.8
		c0.5,0.6,0.7,1.4,0.7,2.6v5.3h-1.7v-5.3c0-0.8-0.1-1.4-0.4-1.7c-0.2-0.3-0.6-0.5-1.1-0.5c-0.4,0-0.7,0.1-1,0.3
		c-0.3,0.2-0.5,0.5-0.7,0.8v6.5h-1.7v-8.7H162.2z"/>
	<path class="st0" d="M171,109.1h-1.7v-1.6h1.7V109.1z M171,120h-1.7v-8.7h1.7V120z"/>
	<path class="st0" d="M174.8,118.8h4.5v1.2h-6.4v-1l4.3-6.4h-4.2v-1.3h6.2v1L174.8,118.8z"/>
	<path class="st0" d="M182.7,109.1H181v-1.6h1.7V109.1z M182.7,120H181v-8.7h1.7V120z"/>
	<path class="st0" d="M186.4,111.3l0.1,1.3c0.3-0.5,0.6-0.8,1-1.1c0.4-0.3,0.9-0.4,1.4-0.4c0.8,0,1.5,0.3,1.9,0.8
		c0.5,0.6,0.7,1.4,0.7,2.6v5.3h-1.7v-5.3c0-0.8-0.1-1.4-0.4-1.7c-0.2-0.3-0.6-0.5-1.1-0.5c-0.4,0-0.7,0.1-1,0.3
		c-0.3,0.2-0.5,0.5-0.7,0.8v6.5h-1.7v-8.7H186.4z"/>
	<path class="st0" d="M193.2,115.8c0-1.4,0.3-2.5,0.8-3.3s1.3-1.3,2.3-1.3c0.5,0,0.9,0.1,1.3,0.3c0.4,0.2,0.7,0.5,0.9,0.9l0.2-1.1
		h1.5v8.7c0,1.1-0.3,2-0.9,2.6c-0.6,0.6-1.5,0.9-2.7,0.9c-0.4,0-0.8-0.1-1.3-0.2c-0.4-0.1-0.8-0.3-1.2-0.5l0.3-1.2
		c0.3,0.2,0.7,0.3,1,0.4c0.4,0.1,0.7,0.1,1.1,0.1c0.6,0,1.1-0.2,1.4-0.5c0.3-0.4,0.5-0.9,0.5-1.6v-0.9c-0.3,0.3-0.5,0.6-0.9,0.8
		s-0.7,0.3-1.2,0.3c-1,0-1.7-0.4-2.3-1.2s-0.8-1.8-0.8-3.1V115.8z M194.9,116c0,0.9,0.1,1.6,0.4,2.2c0.3,0.5,0.7,0.8,1.4,0.8
		c0.4,0,0.7-0.1,1-0.3c0.3-0.2,0.5-0.5,0.7-0.8v-4.3c-0.2-0.4-0.4-0.6-0.7-0.8c-0.3-0.2-0.6-0.3-1-0.3c-0.6,0-1.1,0.3-1.4,0.9
		c-0.3,0.6-0.4,1.4-0.4,2.4V116z"/>
</g>
<g class="st34">
	<path class="st0" d="M98.7,127.9v2.2h1.4v1.2h-1.4v5.2c0,0.4,0.1,0.8,0.2,1c0.1,0.2,0.3,0.3,0.6,0.3c0.1,0,0.2,0,0.3,0
		c0.1,0,0.2,0,0.3-0.1l0.2,1.1c-0.2,0.1-0.3,0.1-0.6,0.2c-0.2,0-0.4,0.1-0.6,0.1c-0.7,0-1.2-0.2-1.6-0.6c-0.4-0.4-0.6-1-0.6-1.9
		v-5.2h-1.2V130h1.2v-2.2H98.7z"/>
	<path class="st0" d="M103.4,131.2c0.3-0.4,0.6-0.7,1-1s0.8-0.3,1.3-0.3c0.8,0,1.5,0.3,2,0.9c0.5,0.6,0.7,1.5,0.7,2.7v5.3h-1.7v-5.3
		c0-0.8-0.1-1.4-0.4-1.7c-0.2-0.3-0.6-0.5-1.1-0.5c-0.4,0-0.7,0.1-1,0.3c-0.3,0.2-0.5,0.4-0.7,0.8v6.5h-1.7v-12.5h1.7V131.2z"/>
	<path class="st0" d="M113.6,138.9c-1.1,0-2.1-0.4-2.7-1.2c-0.7-0.8-1-1.8-1-3.1v-0.4c0-1.3,0.3-2.3,1-3.1c0.6-0.8,1.5-1.2,2.5-1.2
		c1.1,0,1.9,0.3,2.4,1c0.5,0.7,0.8,1.6,0.8,2.8v0.9h-5c0,0.9,0.2,1.6,0.5,2.2c0.3,0.5,0.9,0.8,1.6,0.8c0.5,0,0.9-0.1,1.3-0.2
		c0.4-0.1,0.7-0.3,1-0.6l0.6,1c-0.3,0.3-0.7,0.6-1.2,0.8C114.8,138.8,114.3,138.9,113.6,138.9z M113.5,131.1c-0.5,0-0.9,0.2-1.2,0.7
		c-0.3,0.4-0.5,1-0.6,1.7h3.3v-0.2c0-0.7-0.1-1.2-0.4-1.6C114.4,131.3,114,131.1,113.5,131.1z"/>
	<path class="st0" d="M124.2,138.7h-1.7V127h1.7V138.7z"/>
	<path class="st0" d="M128.1,130l0.1,1.3c0.3-0.5,0.6-0.8,1-1.1c0.4-0.3,0.9-0.4,1.4-0.4c0.8,0,1.5,0.3,1.9,0.8
		c0.5,0.6,0.7,1.4,0.7,2.6v5.3h-1.7v-5.3c0-0.8-0.1-1.4-0.4-1.7c-0.2-0.3-0.6-0.5-1.1-0.5c-0.4,0-0.7,0.1-1,0.3
		c-0.3,0.2-0.5,0.5-0.7,0.8v6.5h-1.7V130H128.1z"/>
	<path class="st0" d="M137,127.8h-1.7v-1.6h1.7V127.8z M137,138.7h-1.7V130h1.7V138.7z"/>
	<path class="st0" d="M141.3,127.9v2.2h1.4v1.2h-1.4v5.2c0,0.4,0.1,0.8,0.2,1c0.1,0.2,0.3,0.3,0.6,0.3c0.1,0,0.2,0,0.3,0
		c0.1,0,0.2,0,0.3-0.1l0.2,1.1c-0.2,0.1-0.3,0.1-0.6,0.2c-0.2,0-0.4,0.1-0.6,0.1c-0.7,0-1.2-0.2-1.6-0.6c-0.4-0.4-0.6-1-0.6-1.9
		v-5.2h-1.2V130h1.2v-2.2H141.3z"/>
	<path class="st0" d="M146.2,127.8h-1.7v-1.6h1.7V127.8z M146.2,138.7h-1.7V130h1.7V138.7z"/>
	<path class="st0" d="M153.1,138.7c-0.1-0.3-0.1-0.5-0.2-0.7c0-0.2-0.1-0.4-0.1-0.6c-0.2,0.4-0.6,0.8-1,1.1
		c-0.4,0.3-0.9,0.4-1.4,0.4c-0.8,0-1.5-0.2-1.9-0.7s-0.7-1.1-0.7-1.9c0-0.8,0.3-1.5,0.9-1.9c0.6-0.5,1.5-0.7,2.6-0.7h1.4v-0.9
		c0-0.5-0.1-0.9-0.4-1.2c-0.3-0.3-0.6-0.4-1.1-0.4c-0.4,0-0.8,0.1-1,0.4c-0.2,0.3-0.4,0.6-0.4,1l-1.7,0l0,0c0-0.7,0.2-1.3,0.8-1.8
		c0.6-0.5,1.4-0.8,2.3-0.8c0.9,0,1.7,0.3,2.2,0.8c0.6,0.5,0.9,1.2,0.9,2.2v4c0,0.3,0,0.7,0.1,1c0,0.3,0.1,0.6,0.2,0.9H153.1z
		 M150.9,137.6c0.5,0,0.9-0.1,1.3-0.4s0.6-0.6,0.7-1v-1.5h-1.4c-0.5,0-1,0.2-1.3,0.5s-0.5,0.7-0.5,1.1c0,0.4,0.1,0.7,0.3,1
		C150.2,137.5,150.5,137.6,150.9,137.6z"/>
	<path class="st0" d="M158.4,138.7h-1.7v-12.5h1.7V138.7z"/>
	<path class="st0" d="M172.3,135.2L172.3,135.2c0,1.2-0.3,2.1-1,2.7s-1.7,1-2.9,1c-1.3,0-2.3-0.4-3-1.1s-1.1-1.8-1.1-3.2v-3.2
		c0-1.4,0.4-2.5,1.1-3.2s1.7-1.2,3-1.2c1.3,0,2.3,0.3,3,0.9c0.7,0.6,1.1,1.5,1,2.7l0,0h-1.7c0-0.8-0.2-1.4-0.6-1.8
		c-0.4-0.4-1-0.6-1.7-0.6c-0.8,0-1.4,0.3-1.8,0.8s-0.6,1.3-0.6,2.3v3.3c0,1,0.2,1.8,0.6,2.3c0.4,0.5,1,0.8,1.8,0.8
		c0.8,0,1.3-0.2,1.7-0.6c0.4-0.4,0.6-1,0.6-1.9H172.3z"/>
	<path class="st0" d="M173.7,134.3c0-1.3,0.3-2.3,1-3.2c0.6-0.8,1.5-1.2,2.7-1.2c1.1,0,2,0.4,2.7,1.2c0.7,0.8,1,1.9,1,3.2v0.2
		c0,1.3-0.3,2.3-1,3.2c-0.6,0.8-1.5,1.2-2.7,1.2c-1.1,0-2-0.4-2.7-1.2s-1-1.9-1-3.2V134.3z M175.4,134.5c0,0.9,0.2,1.7,0.5,2.3
		c0.3,0.6,0.8,0.9,1.4,0.9c0.6,0,1.1-0.3,1.4-0.9c0.3-0.6,0.5-1.3,0.5-2.3v-0.2c0-0.9-0.2-1.7-0.5-2.3c-0.3-0.6-0.8-0.9-1.4-0.9
		c-0.6,0-1.1,0.3-1.4,0.9c-0.3,0.6-0.5,1.3-0.5,2.3V134.5z"/>
	<path class="st0" d="M184.5,127.8h-1.7v-1.6h1.7V127.8z M184.5,138.7h-1.7V130h1.7V138.7z"/>
	<path class="st0" d="M188.2,130l0.1,1.3c0.3-0.5,0.6-0.8,1-1.1c0.4-0.3,0.9-0.4,1.4-0.4c0.8,0,1.5,0.3,1.9,0.8
		c0.5,0.6,0.7,1.4,0.7,2.6v5.3h-1.7v-5.3c0-0.8-0.1-1.4-0.4-1.7c-0.2-0.3-0.6-0.5-1.1-0.5c-0.4,0-0.7,0.1-1,0.3
		c-0.3,0.2-0.5,0.5-0.7,0.8v6.5h-1.7V130H188.2z"/>
	<path class="st0" d="M194.9,134.5c0-1.4,0.3-2.5,0.8-3.3s1.3-1.3,2.3-1.3c0.5,0,0.9,0.1,1.3,0.3c0.4,0.2,0.7,0.5,0.9,0.9l0.2-1.1
		h1.5v8.7c0,1.1-0.3,2-0.9,2.6c-0.6,0.6-1.5,0.9-2.7,0.9c-0.4,0-0.8-0.1-1.3-0.2c-0.4-0.1-0.8-0.3-1.2-0.5l0.3-1.2
		c0.3,0.2,0.7,0.3,1,0.4c0.4,0.1,0.7,0.1,1.1,0.1c0.6,0,1.1-0.2,1.4-0.5c0.3-0.4,0.5-0.9,0.5-1.6v-0.9c-0.3,0.3-0.5,0.6-0.9,0.8
		s-0.7,0.3-1.2,0.3c-1,0-1.7-0.4-2.3-1.2s-0.8-1.8-0.8-3.1V134.5z M196.7,134.6c0,0.9,0.1,1.6,0.4,2.2c0.3,0.5,0.7,0.8,1.4,0.8
		c0.4,0,0.7-0.1,1-0.3c0.3-0.2,0.5-0.5,0.7-0.8v-4.3c-0.2-0.4-0.4-0.6-0.7-0.8c-0.3-0.2-0.6-0.3-1-0.3c-0.6,0-1.1,0.3-1.4,0.9
		c-0.3,0.6-0.4,1.4-0.4,2.4V134.6z"/>
	<path class="st0" d="M216.2,134.5c0,1.4-0.4,2.5-1.2,3.2s-1.9,1.2-3.2,1.2c-1.3,0-2.4-0.4-3.1-1.2c-0.8-0.8-1.2-1.8-1.2-3.2v-3.2
		c0-1.4,0.4-2.5,1.2-3.2c0.8-0.8,1.8-1.2,3.1-1.2c1.3,0,2.4,0.4,3.2,1.2c0.8,0.8,1.2,1.9,1.2,3.2V134.5z M214.5,131.2
		c0-1-0.2-1.8-0.7-2.3c-0.5-0.5-1.1-0.8-2-0.8c-0.8,0-1.5,0.3-1.9,0.8c-0.4,0.5-0.7,1.3-0.7,2.3v3.2c0,1,0.2,1.8,0.7,2.3
		s1.1,0.8,1.9,0.8c0.9,0,1.5-0.3,2-0.8c0.5-0.5,0.7-1.3,0.7-2.3V131.2z"/>
	<path class="st0" d="M218.6,138.7v-7.5h-1.2V130h1.2v-1.1c0-0.9,0.2-1.6,0.7-2.1s1.1-0.8,2-0.8c0.2,0,0.3,0,0.5,0s0.4,0.1,0.6,0.1
		l-0.2,1.2c-0.1,0-0.2,0-0.3-0.1c-0.1,0-0.3,0-0.4,0c-0.4,0-0.7,0.1-0.9,0.4c-0.2,0.3-0.3,0.7-0.3,1.2v1.1h1.5v1.2h-1.5v7.5H218.6z"
		/>
	<path class="st0" d="M223.8,138.7v-7.5h-1.2V130h1.2v-1.1c0-0.9,0.2-1.6,0.7-2.1s1.1-0.8,2-0.8c0.2,0,0.3,0,0.5,0
		c0.2,0,0.4,0.1,0.6,0.1l-0.2,1.2c-0.1,0-0.2,0-0.3-0.1c-0.1,0-0.3,0-0.4,0c-0.4,0-0.7,0.1-0.9,0.4c-0.2,0.3-0.3,0.7-0.3,1.2v1.1
		h1.5v1.2h-1.5v7.5H223.8z"/>
	<path class="st0" d="M231.6,138.9c-1.2,0-2.1-0.4-2.7-1.2c-0.7-0.8-1-1.8-1-3.1v-0.4c0-1.3,0.3-2.3,1-3.1c0.6-0.8,1.5-1.2,2.5-1.2
		c1.1,0,1.9,0.3,2.4,1c0.5,0.7,0.8,1.6,0.8,2.8v0.9h-5c0,0.9,0.2,1.6,0.5,2.2c0.3,0.5,0.9,0.8,1.6,0.8c0.5,0,0.9-0.1,1.3-0.2
		s0.7-0.3,1-0.6l0.6,1c-0.3,0.3-0.7,0.6-1.2,0.8C232.8,138.8,232.2,138.9,231.6,138.9z M231.4,131.1c-0.5,0-0.9,0.2-1.2,0.7
		c-0.3,0.4-0.5,1-0.6,1.7h3.3v-0.2c0-0.7-0.1-1.2-0.4-1.6C232.3,131.3,232,131.1,231.4,131.1z"/>
	<path class="st0" d="M240.2,131.4l-0.8,0c-0.4,0-0.7,0.1-0.9,0.3c-0.2,0.2-0.4,0.5-0.6,0.9v6.2h-1.7V130h1.6l0.1,1.3
		c0.2-0.5,0.5-0.8,0.8-1.1c0.3-0.3,0.7-0.4,1.1-0.4c0.1,0,0.2,0,0.3,0s0.2,0,0.3,0.1L240.2,131.4z"/>
	<path class="st0" d="M243.5,127.8h-1.7v-1.6h1.7V127.8z M243.5,138.7h-1.7V130h1.7V138.7z"/>
	<path class="st0" d="M247.1,130l0.1,1.3c0.3-0.5,0.6-0.8,1-1.1c0.4-0.3,0.9-0.4,1.4-0.4c0.8,0,1.5,0.3,1.9,0.8
		c0.5,0.6,0.7,1.4,0.7,2.6v5.3h-1.7v-5.3c0-0.8-0.1-1.4-0.4-1.7c-0.2-0.3-0.6-0.5-1.1-0.5c-0.4,0-0.7,0.1-1,0.3
		c-0.3,0.2-0.5,0.5-0.7,0.8v6.5h-1.7V130H247.1z"/>
	<path class="st0" d="M253.9,134.5c0-1.4,0.3-2.5,0.8-3.3s1.3-1.3,2.3-1.3c0.5,0,0.9,0.1,1.3,0.3c0.4,0.2,0.7,0.5,0.9,0.9l0.2-1.1
		h1.5v8.7c0,1.1-0.3,2-0.9,2.6c-0.6,0.6-1.5,0.9-2.7,0.9c-0.4,0-0.8-0.1-1.3-0.2c-0.4-0.1-0.8-0.3-1.2-0.5l0.3-1.2
		c0.3,0.2,0.7,0.3,1,0.4s0.8,0.1,1.1,0.1c0.6,0,1.1-0.2,1.4-0.5s0.5-0.9,0.5-1.6v-0.9c-0.2,0.3-0.5,0.6-0.9,0.8
		c-0.3,0.2-0.7,0.3-1.2,0.3c-1,0-1.7-0.4-2.3-1.2s-0.8-1.8-0.8-3.1V134.5z M255.6,134.6c0,0.9,0.1,1.6,0.4,2.2
		c0.3,0.5,0.7,0.8,1.4,0.8c0.4,0,0.7-0.1,1-0.3c0.3-0.2,0.5-0.5,0.7-0.8v-4.3c-0.2-0.4-0.4-0.6-0.7-0.8c-0.3-0.2-0.6-0.3-1-0.3
		c-0.6,0-1.1,0.3-1.4,0.9c-0.3,0.6-0.4,1.4-0.4,2.4V134.6z"/>
</g>
<g class="st34">
	<path class="st0" d="M101.2,157.4c-0.1-0.3-0.1-0.5-0.2-0.7c0-0.2-0.1-0.4-0.1-0.6c-0.2,0.4-0.6,0.8-1,1.1
		c-0.4,0.3-0.9,0.4-1.4,0.4c-0.8,0-1.5-0.2-1.9-0.7s-0.7-1.1-0.7-1.9c0-0.8,0.3-1.5,0.9-1.9c0.6-0.5,1.5-0.7,2.6-0.7h1.4v-0.9
		c0-0.5-0.1-0.9-0.4-1.2c-0.3-0.3-0.6-0.4-1.1-0.4c-0.4,0-0.8,0.1-1,0.4c-0.2,0.3-0.4,0.6-0.4,1l-1.7,0l0,0c0-0.7,0.2-1.3,0.8-1.8
		c0.6-0.5,1.4-0.8,2.3-0.8c0.9,0,1.7,0.3,2.2,0.8c0.6,0.5,0.9,1.2,0.9,2.2v4c0,0.3,0,0.7,0.1,1c0,0.3,0.1,0.6,0.2,0.9H101.2z
		 M99,156.3c0.5,0,0.9-0.1,1.3-0.4s0.6-0.6,0.7-1v-1.5h-1.4c-0.5,0-1,0.2-1.3,0.5s-0.5,0.7-0.5,1.1c0,0.4,0.1,0.7,0.3,1
		C98.3,156.2,98.6,156.3,99,156.3z"/>
	<path class="st0" d="M104.4,153.2c0-1.4,0.3-2.5,0.8-3.3s1.3-1.3,2.3-1.3c0.4,0,0.8,0.1,1.2,0.3s0.6,0.5,0.9,0.8v-4.7h1.7v12.5
		h-1.4l-0.2-1c-0.3,0.4-0.6,0.7-0.9,0.9c-0.4,0.2-0.8,0.3-1.3,0.3c-1,0-1.7-0.4-2.3-1.2c-0.5-0.8-0.8-1.8-0.8-3.1V153.2z
		 M106.1,153.3c0,0.9,0.1,1.6,0.4,2.2c0.3,0.5,0.7,0.8,1.4,0.8c0.4,0,0.7-0.1,1-0.3c0.3-0.2,0.5-0.5,0.7-0.8V151
		c-0.2-0.4-0.4-0.6-0.7-0.9c-0.3-0.2-0.6-0.3-1-0.3c-0.6,0-1.1,0.3-1.4,0.9c-0.3,0.6-0.4,1.4-0.4,2.4V153.3z"/>
	<path class="st0" d="M116,154.8l0.1,0.7h0.1l0.2-0.7l1.6-6.1h1.8l-2.8,8.7h-1.5l-2.8-8.7h1.8L116,154.8z"/>
	<path class="st0" d="M124.2,157.6c-1.1,0-2.1-0.4-2.7-1.2c-0.7-0.8-1-1.8-1-3.1v-0.4c0-1.3,0.3-2.3,1-3.1c0.6-0.8,1.5-1.2,2.5-1.2
		c1.1,0,1.9,0.3,2.4,1c0.5,0.7,0.8,1.6,0.8,2.8v0.9h-5c0,0.9,0.2,1.6,0.5,2.2c0.3,0.5,0.9,0.8,1.6,0.8c0.5,0,0.9-0.1,1.3-0.2
		c0.4-0.1,0.7-0.3,1-0.6l0.6,1c-0.3,0.3-0.7,0.6-1.2,0.8C125.5,157.4,124.9,157.6,124.2,157.6z M124.1,149.8c-0.5,0-0.9,0.2-1.2,0.7
		c-0.3,0.4-0.5,1-0.6,1.7h3.3V152c0-0.7-0.1-1.2-0.4-1.6C125,150,124.6,149.8,124.1,149.8z"/>
	<path class="st0" d="M132.8,150.1l-0.8,0c-0.4,0-0.7,0.1-0.9,0.3c-0.2,0.2-0.4,0.5-0.6,0.9v6.2h-1.7v-8.7h1.6l0.1,1.3
		c0.2-0.5,0.5-0.8,0.8-1.1c0.3-0.3,0.7-0.4,1.1-0.4c0.1,0,0.2,0,0.3,0s0.2,0,0.3,0.1L132.8,150.1z"/>
	<path class="st0" d="M136.6,146.6v2.2h1.4v1.2h-1.4v5.2c0,0.4,0.1,0.8,0.2,1c0.1,0.2,0.3,0.3,0.6,0.3c0.1,0,0.2,0,0.3,0
		c0.1,0,0.2,0,0.3-0.1l0.2,1.1c-0.2,0.1-0.3,0.1-0.6,0.2c-0.2,0-0.4,0.1-0.6,0.1c-0.7,0-1.2-0.2-1.6-0.6c-0.4-0.4-0.6-1-0.6-1.9
		v-5.2h-1.2v-1.2h1.2v-2.2H136.6z"/>
	<path class="st0" d="M141.5,146.4h-1.7v-1.6h1.7V146.4z M141.5,157.4h-1.7v-8.7h1.7V157.4z"/>
	<path class="st0" d="M148,155.2c0-0.3-0.1-0.6-0.4-0.8c-0.2-0.2-0.7-0.5-1.4-0.8c-1-0.3-1.7-0.7-2.1-1.1c-0.5-0.4-0.7-0.9-0.7-1.5
		c0-0.7,0.3-1.2,0.9-1.7c0.6-0.5,1.3-0.7,2.2-0.7c1,0,1.7,0.3,2.3,0.8c0.6,0.5,0.9,1.1,0.8,1.9l0,0h-1.7c0-0.4-0.1-0.8-0.4-1.1
		c-0.3-0.3-0.6-0.4-1.1-0.4s-0.8,0.1-1,0.3s-0.4,0.5-0.4,0.8c0,0.3,0.1,0.6,0.3,0.8c0.2,0.2,0.7,0.4,1.4,0.7c1,0.3,1.7,0.7,2.2,1.1
		c0.5,0.4,0.7,1,0.7,1.6c0,0.7-0.3,1.3-0.9,1.8c-0.6,0.5-1.4,0.7-2.3,0.7c-1,0-1.9-0.3-2.4-0.8s-0.9-1.2-0.8-1.9l0,0h1.6
		c0,0.6,0.2,1,0.5,1.2s0.7,0.4,1.2,0.4c0.5,0,0.8-0.1,1.1-0.3C147.8,155.8,148,155.5,148,155.2z"/>
	<path class="st0" d="M153.2,146.4h-1.7v-1.6h1.7V146.4z M153.2,157.4h-1.7v-8.7h1.7V157.4z"/>
	<path class="st0" d="M156.8,148.7l0.1,1.3c0.3-0.5,0.6-0.8,1-1.1c0.4-0.3,0.9-0.4,1.4-0.4c0.8,0,1.5,0.3,1.9,0.8
		c0.5,0.6,0.7,1.4,0.7,2.6v5.3h-1.7v-5.3c0-0.8-0.1-1.4-0.4-1.7c-0.2-0.3-0.6-0.5-1.1-0.5c-0.4,0-0.7,0.1-1,0.3
		c-0.3,0.2-0.5,0.5-0.7,0.8v6.5h-1.7v-8.7H156.8z"/>
	<path class="st0" d="M163.6,153.2c0-1.4,0.3-2.5,0.8-3.3s1.3-1.3,2.3-1.3c0.5,0,0.9,0.1,1.3,0.3c0.4,0.2,0.7,0.5,0.9,0.9l0.2-1.1
		h1.5v8.7c0,1.1-0.3,2-0.9,2.6c-0.6,0.6-1.5,0.9-2.7,0.9c-0.4,0-0.8-0.1-1.3-0.2c-0.4-0.1-0.8-0.3-1.2-0.5l0.3-1.2
		c0.3,0.2,0.7,0.3,1,0.4c0.4,0.1,0.7,0.1,1.1,0.1c0.6,0,1.1-0.2,1.4-0.5c0.3-0.4,0.5-0.9,0.5-1.6v-0.9c-0.3,0.3-0.5,0.6-0.9,0.8
		s-0.7,0.3-1.2,0.3c-1,0-1.7-0.4-2.3-1.2s-0.8-1.8-0.8-3.1V153.2z M165.3,153.3c0,0.9,0.1,1.6,0.4,2.2c0.3,0.5,0.7,0.8,1.4,0.8
		c0.4,0,0.7-0.1,1-0.3c0.3-0.2,0.5-0.5,0.7-0.8V151c-0.2-0.4-0.4-0.6-0.7-0.8c-0.3-0.2-0.6-0.3-1-0.3c-0.6,0-1.1,0.3-1.4,0.9
		c-0.3,0.6-0.4,1.4-0.4,2.4V153.3z"/>
	<path class="st0" d="M183.3,154.6L183.3,154.6l1.2-5.8h1.7l-2.2,8.7h-1.4l-1.7-5.6h-0.1l-1.7,5.6h-1.4l-2.2-8.7h1.7l1.2,5.8h0.1
		l1.7-5.8h1.2L183.3,154.6z"/>
	<path class="st0" d="M189.5,146.4h-1.7v-1.6h1.7V146.4z M189.5,157.4h-1.7v-8.7h1.7V157.4z"/>
	<path class="st0" d="M193.9,146.6v2.2h1.4v1.2h-1.4v5.2c0,0.4,0.1,0.8,0.2,1c0.1,0.2,0.3,0.3,0.6,0.3c0.1,0,0.2,0,0.3,0
		c0.1,0,0.2,0,0.3-0.1l0.2,1.1c-0.2,0.1-0.3,0.1-0.6,0.2c-0.2,0-0.4,0.1-0.6,0.1c-0.7,0-1.2-0.2-1.6-0.6c-0.4-0.4-0.6-1-0.6-1.9
		v-5.2h-1.2v-1.2h1.2v-2.2H193.9z"/>
	<path class="st0" d="M198.6,149.9c0.3-0.4,0.6-0.7,1-1s0.8-0.3,1.3-0.3c0.8,0,1.5,0.3,2,0.9c0.5,0.6,0.7,1.5,0.7,2.7v5.3h-1.7v-5.3
		c0-0.8-0.1-1.4-0.4-1.7c-0.2-0.3-0.6-0.5-1.1-0.5c-0.4,0-0.7,0.1-1,0.3c-0.3,0.2-0.5,0.4-0.7,0.8v6.5h-1.7v-12.5h1.7V149.9z"/>
	<path class="st0" d="M216.3,153.3c0,1.3-0.3,2.3-0.8,3.1c-0.5,0.8-1.3,1.2-2.3,1.2c-0.5,0-0.9-0.1-1.3-0.3
		c-0.4-0.2-0.7-0.5-0.9-0.9l-0.2,1.1h-1.4v-12.5h1.7v4.8c0.2-0.4,0.5-0.6,0.9-0.8s0.8-0.3,1.2-0.3c1,0,1.8,0.4,2.3,1.3
		c0.5,0.8,0.8,2,0.8,3.3V153.3z M214.5,153.2c0-1-0.1-1.8-0.4-2.4c-0.3-0.6-0.7-0.9-1.4-0.9c-0.4,0-0.7,0.1-1,0.3
		c-0.3,0.2-0.5,0.5-0.6,0.9v4.1c0.2,0.4,0.4,0.7,0.6,0.9s0.6,0.3,1,0.3c0.6,0,1.1-0.3,1.4-0.8s0.4-1.3,0.4-2.2V153.2z"/>
	<path class="st0" d="M219.8,157.4H218v-12.5h1.7V157.4z"/>
	<path class="st0" d="M221.5,153c0-1.3,0.3-2.3,1-3.2c0.6-0.8,1.5-1.2,2.7-1.2c1.1,0,2,0.4,2.7,1.2c0.7,0.8,1,1.9,1,3.2v0.2
		c0,1.3-0.3,2.3-1,3.2c-0.7,0.8-1.5,1.2-2.7,1.2c-1.1,0-2-0.4-2.7-1.2s-1-1.9-1-3.2V153z M223.3,153.2c0,0.9,0.2,1.7,0.5,2.3
		c0.3,0.6,0.8,0.9,1.4,0.9c0.6,0,1.1-0.3,1.4-0.9c0.3-0.6,0.5-1.3,0.5-2.3V153c0-0.9-0.2-1.7-0.5-2.3c-0.3-0.6-0.8-0.9-1.4-0.9
		c-0.6,0-1.1,0.3-1.4,0.9c-0.3,0.6-0.5,1.3-0.5,2.3V153.2z"/>
	<path class="st0" d="M233.7,156.3c0.4,0,0.8-0.2,1.1-0.5c0.3-0.3,0.4-0.7,0.4-1.3h1.6l0,0c0,0.8-0.3,1.5-0.9,2.1
		c-0.6,0.6-1.3,0.8-2.2,0.8c-1.1,0-2-0.4-2.6-1.2c-0.6-0.8-0.9-1.9-0.9-3.1v-0.3c0-1.3,0.3-2.3,0.9-3.1c0.6-0.8,1.5-1.2,2.6-1.2
		c0.9,0,1.7,0.3,2.2,0.9c0.6,0.6,0.9,1.3,0.8,2.3l0,0h-1.6c0-0.6-0.1-1-0.4-1.4c-0.3-0.4-0.6-0.5-1.1-0.5c-0.6,0-1.1,0.3-1.4,0.9
		c-0.3,0.6-0.4,1.3-0.4,2.2v0.3c0,0.9,0.1,1.7,0.4,2.2C232.6,156,233,156.3,233.7,156.3z"/>
	<path class="st0" d="M240.8,153.4h-0.6v4h-1.7v-12.5h1.7v7.3h0.6l2.2-3.5h2l-2.8,3.9l3.1,4.7h-2L240.8,153.4z"/>
	<path class="st0" d="M249.4,156.3c0.4,0,0.8-0.2,1.1-0.5c0.3-0.3,0.4-0.7,0.4-1.3h1.6l0,0c0,0.8-0.3,1.5-0.9,2.1
		c-0.6,0.6-1.3,0.8-2.2,0.8c-1.1,0-2-0.4-2.6-1.2c-0.6-0.8-0.9-1.9-0.9-3.1v-0.3c0-1.3,0.3-2.3,0.9-3.1c0.6-0.8,1.5-1.2,2.6-1.2
		c0.9,0,1.7,0.3,2.2,0.9c0.6,0.6,0.9,1.3,0.8,2.3l0,0h-1.6c0-0.6-0.1-1-0.4-1.4c-0.3-0.4-0.6-0.5-1.1-0.5c-0.6,0-1.1,0.3-1.4,0.9
		c-0.3,0.6-0.4,1.3-0.4,2.2v0.3c0,0.9,0.1,1.7,0.4,2.2C248.3,156,248.8,156.3,249.4,156.3z"/>
	<path class="st0" d="M255.8,149.9c0.3-0.4,0.6-0.7,1-1c0.4-0.2,0.8-0.3,1.3-0.3c0.8,0,1.5,0.3,2,0.9c0.5,0.6,0.7,1.5,0.7,2.7v5.3
		H259v-5.3c0-0.8-0.1-1.4-0.4-1.7c-0.2-0.3-0.6-0.5-1.1-0.5c-0.4,0-0.7,0.1-1,0.3s-0.5,0.4-0.7,0.8v6.5h-1.7v-12.5h1.7V149.9z"/>
	<path class="st0" d="M267.5,157.4c-0.1-0.3-0.1-0.5-0.2-0.7c0-0.2-0.1-0.4-0.1-0.6c-0.2,0.4-0.6,0.8-1,1.1
		c-0.4,0.3-0.9,0.4-1.4,0.4c-0.8,0-1.5-0.2-1.9-0.7s-0.7-1.1-0.7-1.9c0-0.8,0.3-1.5,0.9-1.9c0.6-0.5,1.5-0.7,2.6-0.7h1.4v-0.9
		c0-0.5-0.1-0.9-0.4-1.2c-0.3-0.3-0.6-0.4-1.1-0.4c-0.4,0-0.8,0.1-1,0.4c-0.2,0.3-0.4,0.6-0.4,1l-1.7,0l0,0c0-0.7,0.2-1.3,0.8-1.8
		s1.4-0.8,2.3-0.8c0.9,0,1.7,0.3,2.2,0.8c0.6,0.5,0.9,1.2,0.9,2.2v4c0,0.3,0,0.7,0.1,1c0,0.3,0.1,0.6,0.2,0.9H267.5z M265.3,156.3
		c0.5,0,0.9-0.1,1.3-0.4s0.6-0.6,0.7-1v-1.5h-1.4c-0.5,0-1,0.2-1.3,0.5s-0.5,0.7-0.5,1.1c0,0.4,0.1,0.7,0.3,1
		C264.6,156.2,264.9,156.3,265.3,156.3z"/>
	<path class="st0" d="M272.8,146.4h-1.7v-1.6h1.7V146.4z M272.8,157.4h-1.7v-8.7h1.7V157.4z"/>
	<path class="st0" d="M276.5,148.7l0.1,1.3c0.3-0.5,0.6-0.8,1-1.1c0.4-0.3,0.9-0.4,1.4-0.4c0.8,0,1.5,0.3,1.9,0.8
		c0.5,0.6,0.7,1.4,0.7,2.6v5.3h-1.7v-5.3c0-0.8-0.1-1.4-0.4-1.7c-0.2-0.3-0.6-0.5-1.1-0.5c-0.4,0-0.7,0.1-1,0.3
		c-0.3,0.2-0.5,0.5-0.7,0.8v6.5h-1.7v-8.7H276.5z"/>
</g>
</svg>
